. 
  
http://www.torrentday.com/        :     The Hottest Private Tracker On The Net!!!


               www . TorrentDay . Com 
(((((((((((((= Enjoy No RAR releases =))))))))))))))))))))


...................................NFO:....................................

.*******************************************************************************
                    When.We.Leave.2010.DVDRip.AC3.X264-BARC0DE
*******************************************************************************

-------------------------------------------------------------------------------
                              General Information
-------------------------------------------------------------------------------
Type.................: Movie
Name.................: When We Leave (Die Fremde (original title))
Movie Information....: http://www.imdb.com/title/tt1288376/
Genre................: Drama
-------------------------------------------------------------------------------
                                    PLOT
-------------------------------------------------------------------------------
Umay is a young woman of Turkish descent, fighting for an independent and self-determined 
life in Germany against the resistance of her family. Her struggle initiates a 
dynamic, which results in a life-threatening situation. 

-------------------------------------------------------------------------------
                                    CAST
-------------------------------------------------------------------------------
Sibel Kekilli	... 	Umay
Nizam Schiller	... 	Cem
Derya Alabora	... 	Halyme
Settar Tanriogen	... 	Kader
Serhad Can	... 	Acar
Almila Bagriacik	... 	Rana
Tamer Yigit	... 	Mehmet
Alwara Hfels	... 	Atife
Florian Lukas	... 	Stipe
Blanca Apilanez Fernandez	... 	Carmen
Mustafa Jouni	... 	Mete

-------------------------------------------------------------------------------
                                    MEDiA iNFO
-------------------------------------------------------------------------------

General
Complete name                    : When.We.Leave.2010.DVDRip.AC3.X264-BARC0DE.mkv
Format                           : Matroska
File size                        : 1.46 GiB
Duration                         : 1h 54mn
Overall bit rate                 : 1 818 Kbps

Video
ID                               : 1
Format                           : AVC
Format/Info                      : Advanced Video Codec
Format profile                   : High@L3.0
Format settings, CABAC           : Yes
Format settings, ReFrames        : 3 frames
Muxing mode                      : Container profile=Unknown@3.0
Codec ID                         : V_MPEG4/ISO/AVC
Duration                         : 1h 54mn
Bit rate                         : 1 374 Kbps
Width                            : 720 pixels
Height                           : 304 pixels
Display aspect ratio             : 2.35:1
Frame rate                       : 25.000 fps
Color space                      : YUV
Chroma subsampling               : 4:2:0
Bit depth                        : 8 bits
Scan type                        : Progressive
Bits/(Pixel*Frame)               : 0.251
Stream size                      : 1.07 GiB (73%)
Writing library                  : x264 core 79


Audio
ID                               : 2
Format                           : AC-3
Format/Info                      : Audio Coding 3
Mode extension                   : CM (complete main)
Codec ID                         : A_AC3
Duration                         : 1h 54mn
Bit rate mode                    : Constant
Bit rate                         : 448 Kbps
Channel(s)                       : 6 channels
Channel positions                : Front: L C R, Side: L R, LFE
Sampling rate                    : 48.0 KHz
Stream size                      : 367 MiB (25%)
Language                         : German

Text
ID                               : 3
Format                           : VobSub
Codec ID                         : S_VOBSUB
Codec ID/Info                    : The same subtitle format used on DVDs
Language                         : English